<?xml version="1.0" standalone="no"?>
<!DOCTYPE svg PUBLIC "-//W3C//DTD SVG 20010904//EN"
 "http://www.w3.org/TR/2001/REC-SVG-20010904/DTD/svg10.dtd">
<svg version="1.0" xmlns="http://www.w3.org/2000/svg"
 width="1044.000000pt" height="1044.000000pt" viewBox="0 0 1044.000000 1044.000000"
 preserveAspectRatio="xMidYMid meet">
<metadata>
Created by potrace 1.11, written by Peter Selinger 2001-2013
</metadata>
<g transform="translate(0.000000,1044.000000) scale(0.100000,-0.100000)"
fill="#000000" stroke="none">
<path d="M4738 10435 c-2 -2 -32 -6 -68 -9 -36 -4 -83 -11 -105 -17 -22 -5
-49 -12 -60 -14 -168 -38 -414 -161 -588 -294 l-57 -43 884 -884 c486 -486
889 -891 897 -900 11 -13 -18 -46 -212 -240 l-224 -224 901 0 901 0 0 900 1
900 -33 -28 c-19 -15 -120 -115 -227 -223 l-193 -196 -485 485 c-267 267 -519
510 -560 541 -183 138 -341 207 -551 237 -38 6 -217 12 -221 9z"/>
<path d="M3415 9385 c0 -173 -2 -316 -5 -316 -3 -1 -324 -2 -715 -3 -390 -1
-714 -4 -720 -8 -5 -3 -35 -9 -65 -13 -88 -11 -218 -53 -320 -102 -312 -151
-533 -447 -633 -848 -14 -55 -28 -118 -30 -140 -3 -22 -9 -64 -13 -92 l-7 -53
1265 0 1265 0 0 -292 c0 -179 -3 -298 -10 -305 -6 -9 -6 -13 2 -13 6 0 11 4
11 9 0 5 277 286 616 625 l616 616 -625 625 c-343 344 -626 625 -628 625 -2 0
-4 -142 -4 -315z"/>
<path d="M7837 9533 c-3 -5 -5 -566 -6 -1248 0 -682 0 -1248 -1 -1257 0 -16
-24 -18 -317 -20 l-316 -3 610 -610 c336 -336 618 -616 627 -624 14 -12 85 55
642 612 531 531 622 627 607 635 -19 10 -102 13 -400 16 l-193 1 -1 25 c0 14
-2 331 -3 705 -2 374 -6 698 -10 720 -35 213 -92 366 -186 505 -148 216 -366
371 -659 469 -131 43 -384 91 -394 74z"/>
<path d="M2487 7033 c-1 -1 -234 -4 -517 -8 -283 -3 -623 -8 -755 -10 -132 -2
-271 -4 -309 -4 l-69 -1 222 -221 c121 -122 221 -224 221 -228 0 -4 -77 -81
-172 -172 -329 -314 -803 -789 -850 -852 -246 -329 -306 -685 -181 -1081 55
-177 165 -384 277 -519 l39 -49 898 898 898 898 194 -195 c107 -107 208 -207
224 -222 l30 -28 0 896 c0 638 -3 895 -11 896 -40 2 -138 4 -139 2z"/>
<path d="M9151 5686 l-895 -895 -223 224 c-131 131 -223 216 -224 207 0 -10
-1 -414 -2 -900 l-2 -882 898 0 c493 0 897 2 897 4 0 2 -100 104 -222 226
l-221 221 510 512 c414 416 520 528 565 597 62 94 106 179 133 255 9 28 20 57
23 65 33 93 56 366 37 450 -3 14 -8 43 -11 65 -20 158 -117 400 -230 572 -60
94 -121 173 -132 173 -4 0 -409 -402 -901 -894z"/>
<path d="M1369 4068 l-622 -623 316 -3 c243 -2 317 -5 318 -15 0 -6 2 -327 3
-712 2 -385 6 -712 10 -728 3 -15 11 -55 17 -89 29 -164 115 -353 223 -487 47
-59 175 -175 244 -221 133 -89 371 -191 497 -213 17 -3 68 -13 115 -21 47 -9
99 -16 116 -16 l31 0 1 1228 c0 675 1 1232 1 1238 1 8 90 11 304 10 166 -1
308 0 316 3 12 4 -1244 1271 -1261 1271 -3 0 -286 -280 -629 -622z"/>
<path d="M6398 2648 c-340 -341 -618 -621 -618 -623 0 -2 280 -283 623 -626
l622 -622 3 316 2 317 688 1 c378 0 694 2 703 4 8 1 42 6 75 9 72 9 195 39
272 68 359 134 626 471 727 918 13 58 27 128 30 155 3 28 8 60 11 73 3 13 -1
22 -8 23 -29 2 -299 1 -943 -6 -374 -3 -877 -8 -1117 -10 l-438 -4 0 315 c0
172 -3 314 -7 313 -5 -1 -286 -280 -625 -621z"/>
<path d="M3419 2638 c-4 -9 -3 -1788 1 -1788 3 0 104 99 225 220 l220 220 495
-494 c272 -271 529 -518 570 -549 135 -100 338 -192 466 -211 21 -4 62 -10 89
-14 149 -22 373 8 555 74 67 24 222 96 275 127 71 42 108 67 173 115 l74 55
-899 899 -898 898 225 225 225 225 -898 0 c-493 0 -898 -1 -898 -2z"/>
</g>
</svg>
